<svg xmlns="http://www.w3.org/2000/svg" width="25" height="25" viewBox="0 0 71 71" fill="none">
<path d="M7.43872 17.1262C7.43872 14.1311 9.70214 11.663 12.6121 11.3419V11.3064H21.9883V17.1262H13.2585V40.7692H21.9883V46.5891H13.2585V46.6303C10.0446 46.6303 7.43872 44.0244 7.43872 40.8104V17.1262Z" fill="white"/>
<path d="M21.9883 54.6396V60.4594H13.2585V54.6396H21.9883Z" fill="white"/>
<path d="M45.4807 30.6187C47.8919 30.6187 49.8455 28.665 49.8455 26.2538C49.8455 23.8426 47.8919 21.8889 45.4807 21.8889C43.0695 21.8889 41.1158 23.8426 41.1158 26.2538C41.1158 28.665 43.0695 30.6187 45.4807 30.6187Z" fill="white"/>
<path d="M52.7555 43.6791C52.7555 47.6973 49.4989 50.9539 45.4807 50.9539C41.4625 50.9539 38.2059 47.6973 38.2059 43.6791C38.2059 39.661 41.4625 36.4044 45.4807 36.4044C49.4989 36.4044 52.7555 39.661 52.7555 43.6791Z" fill="white"/>
<path fill-rule="evenodd" clip-rule="evenodd" d="M33.5171 11.3064C30.3031 11.3064 27.6973 13.9122 27.6973 17.1262V54.6396C27.6973 57.8536 30.3031 60.4594 33.5171 60.4594H57.4443C60.6582 60.4594 63.2641 57.8536 63.2641 54.6396V17.1262C63.2641 13.9122 60.6582 11.3064 57.4443 11.3064H33.5171ZM33.5171 17.1262H57.4443V54.6396H33.5171V17.1262Z" fill="white"/>
</svg>