<svg xmlns="http://www.w3.org/2000/svg" width="30" height="30" viewBox="0 0 58 50" fill="none">
<path d="M7.06528 28.395L28.9186 49.4673L50.772 28.395C54.565 25.539 57.015 21.0112 57.015 15.9075C57.015 7.29177 50.0218 0.298584 41.4061 0.298584C36.3024 0.298584 31.7592 2.76545 28.9186 6.55846C26.0781 2.76545 21.5349 0.298584 16.4312 0.298584C7.81545 0.298584 0.822266 7.29177 0.822266 15.9075C0.822266 21.0112 3.27227 25.539 7.06528 28.395ZM16.4312 5.91786C19.6005 5.91786 22.5127 7.37887 24.4204 9.92581L28.9186 15.9314L33.4169 9.92581C35.3246 7.37887 38.2368 5.91786 41.4061 5.91786C46.9144 5.91786 51.3958 10.3992 51.3958 15.9075C51.3958 19.074 49.9361 21.989 47.3906 23.9066L47.1167 24.1131L46.8694 24.3505L28.9186 41.6607L10.9665 24.3505L10.7192 24.1131L10.4453 23.9066C7.90115 21.989 6.44154 19.074 6.44154 15.9075C6.44154 10.3992 10.9229 5.91786 16.4312 5.91786Z" fill="white"/>
</svg>