<svg xmlns="http://www.w3.org/2000/svg" width="25" height="25" viewBox="0 0 70 70" fill="none">
<path d="M34.6327 7.30791L8.81554 22.5321C8.72682 22.5844 8.67236 22.6797 8.67236 22.7827V62.3255C8.67236 62.4862 8.80264 62.6165 8.96335 62.6165H27.362C27.5227 62.6165 27.653 62.4862 27.653 62.3255V42.5548C27.653 42.3941 27.7833 42.2639 27.944 42.2639H42.1312C42.2919 42.2639 42.4222 42.3941 42.4222 42.5548V62.3255C42.4222 62.4862 42.5525 62.6165 42.7132 62.6165H61.0904C61.2511 62.6165 61.3814 62.4862 61.3814 62.3255V22.7843C61.3814 22.6805 61.326 22.5845 61.2362 22.5325L34.9263 7.3067C34.8354 7.2541 34.7232 7.25456 34.6327 7.30791Z" fill="white" stroke="white" stroke-width="5.81982"/>
</svg>