<svg width="55" height="55" viewBox="0 0 68 67" fill="none" xmlns="http://www.w3.org/2000/svg">
<g id="logos:spotify-icon" clip-path="url(#clip0_5_796)">
<path id="Vector" d="M34 0.375366C15.2224 0.375366 0 15.1401 0 33.3525C0 51.5661 15.2227 66.3296 34 66.3296C52.7789 66.3296 68 51.5661 68 33.3525C68 15.1414 52.7789 0.37717 33.9995 0.37717L34 0.375366ZM49.5919 47.9381C48.9828 48.9068 47.6754 49.2139 46.6767 48.6193C38.6939 43.8899 28.6447 42.8187 16.8098 45.4414C16.2618 45.5624 15.6866 45.4673 15.2109 45.1771C14.7351 44.8869 14.3976 44.4253 14.2726 43.8938C14.2103 43.6307 14.2021 43.3582 14.2485 43.0921C14.2949 42.8259 14.395 42.5712 14.5431 42.3426C14.6911 42.114 14.8842 41.9159 15.1113 41.7598C15.3383 41.6036 15.5949 41.4925 15.8663 41.4326C28.8182 38.5626 39.9274 39.7982 48.8896 45.1106C49.8884 45.7052 50.205 46.9694 49.5919 47.9381ZM53.7535 38.9588C52.9858 40.1684 51.3538 40.5505 50.1075 39.8062C40.9684 34.3578 27.0372 32.7797 16.2276 35.9623C14.8256 36.373 13.345 35.6068 12.9195 34.2493C12.4971 32.8895 13.2876 31.456 14.6872 31.0428C27.0348 27.4086 42.3853 29.169 52.8806 35.4244C54.1269 36.1689 54.5209 37.7516 53.7535 38.9588ZM54.1107 29.6085C43.1526 23.2955 25.0734 22.7148 14.6112 25.795C12.9312 26.2892 11.1544 25.3692 10.6455 23.7396C10.1362 22.1093 11.0837 20.3873 12.7651 19.8919C24.7748 16.3556 44.7403 17.0391 57.3561 24.3033C58.8707 25.1731 59.3659 27.0662 58.4686 28.5298C57.5755 29.9958 55.6184 30.4788 54.1123 29.6085H54.1107Z" fill="#1ED760"/>
</g>
<defs>
<clipPath id="clip0_5_796">
<rect width="68" height="65.9542" fill="white" transform="translate(0 0.375366)"/>
</clipPath>
</defs>
</svg>
