<svg xmlns="http://www.w3.org/2000/svg" width="20" height="20" viewBox="0 0 70 71" fill="none">
<mask id="path-1-inside-1_5_1040" fill="white">
<path fill-rule="evenodd" clip-rule="evenodd" d="M63.5532 0.963989C65.1603 0.963989 66.4631 2.2668 66.4631 3.8739V67.8919C66.4631 69.499 65.1603 70.8018 63.5532 70.8018H57.3327C55.7256 70.8018 54.4228 69.499 54.4228 67.8919V40.8524L5.85648 69.5072C4.88657 70.0794 3.66218 69.3802 3.66218 68.2541L3.66217 3.48544C3.66217 2.36515 4.87515 1.66517 5.84512 2.22571L54.4228 30.2987V3.8739C54.4228 2.2668 55.7256 0.963989 57.3327 0.963989H63.5532Z"/>
</mask>
<path fill-rule="evenodd" clip-rule="evenodd" d="M63.5532 0.963989C65.1603 0.963989 66.4631 2.2668 66.4631 3.8739V67.8919C66.4631 69.499 65.1603 70.8018 63.5532 70.8018H57.3327C55.7256 70.8018 54.4228 69.499 54.4228 67.8919V40.8524L5.85648 69.5072C4.88657 70.0794 3.66218 69.3802 3.66218 68.2541L3.66217 3.48544C3.66217 2.36515 4.87515 1.66517 5.84512 2.22571L54.4228 30.2987V3.8739C54.4228 2.2668 55.7256 0.963989 57.3327 0.963989H63.5532Z" fill="white"/>
<path d="M54.4228 40.8524L52.9441 38.3462L57.3327 35.7568V40.8524H54.4228ZM5.85648 69.5072L7.33517 72.0134L7.33516 72.0134L5.85648 69.5072ZM3.66218 68.2541H6.57209H3.66218ZM3.66217 3.48544L0.752258 3.48544V3.48544H3.66217ZM5.84512 2.22571L7.3011 -0.293756L7.30111 -0.29375L5.84512 2.22571ZM54.4228 30.2987H57.3327V35.3412L52.9668 32.8181L54.4228 30.2987ZM63.5532 3.8739L63.5532 3.8739V-1.94592C66.7674 -1.94592 69.373 0.659705 69.373 3.8739H63.5532ZM63.5532 67.8919V3.8739H69.373V67.8919H63.5532ZM63.5532 67.8919H63.5532H69.373C69.373 71.1061 66.7674 73.7117 63.5532 73.7117V67.8919ZM57.3327 67.8919H63.5532V73.7117H57.3327V67.8919ZM57.3327 67.8919H57.3327V73.7117C54.1185 73.7117 51.5129 71.1061 51.5129 67.8919H57.3327ZM57.3327 40.8524V67.8919H51.5129V40.8524H57.3327ZM4.37778 67.001L52.9441 38.3462L55.9015 43.3586L7.33517 72.0134L4.37778 67.001ZM6.57209 68.2541C6.57209 67.1279 5.3477 66.4287 4.3778 67.001L7.33516 72.0134C4.42544 73.7301 0.752266 71.6325 0.752266 68.2541H6.57209ZM6.57208 3.48544L6.57209 68.2541H0.752266L0.752258 3.48544L6.57208 3.48544ZM4.38914 4.74517C5.3591 5.3057 6.57208 4.60574 6.57208 3.48544H0.752258C0.752258 0.124564 4.3912 -1.97537 7.3011 -0.293756L4.38914 4.74517ZM52.9668 32.8181L4.38913 4.74517L7.30111 -0.29375L55.8788 27.7792L52.9668 32.8181ZM57.3327 3.8739V30.2987H51.5129V3.8739H57.3327ZM57.3327 3.8739H57.3327H51.5129C51.5129 0.659702 54.1185 -1.94592 57.3327 -1.94592V3.8739ZM63.5532 3.8739H57.3327V-1.94592H63.5532V3.8739Z" fill="white" mask="url(#path-1-inside-1_5_1040)"/>
</svg>