<svg xmlns="http://www.w3.org/2000/svg" width="25" height="25" viewBox="0 0 70 70" fill="none">
<path d="M8.73901 5.1947C7.12776 5.1947 5.82129 6.50047 5.82129 8.11314V61.6254C5.82129 63.238 7.12776 64.5438 8.73901 64.5438C10.3503 64.5438 11.6567 63.238 11.6567 61.6254V8.11314C11.6567 6.50047 10.3503 5.1947 8.73901 5.1947Z" fill="white"/>
<path d="M23.4079 8.11314C23.4079 6.50047 24.7144 5.1947 26.3256 5.1947C27.9369 5.1947 29.2434 6.50047 29.2434 8.11314V61.6254C29.2434 63.238 27.9369 64.5438 26.3256 64.5438C24.7144 64.5438 23.4079 63.238 23.4079 61.6254V8.11314Z" fill="white"/>
<path fill-rule="evenodd" clip-rule="evenodd" d="M40.8731 8.75394C40.8731 6.25466 43.6089 4.72014 45.7423 6.02306L62.5922 16.3115C63.0618 16.5985 63.4405 16.9949 63.7048 17.4567C63.9761 17.9327 64.1253 18.4783 64.1253 19.0438V61.4421C64.1253 63.2096 62.6917 64.6433 60.9242 64.6433H44.0742C42.306 64.6433 40.8731 63.2096 40.8731 61.4421V8.75394ZM46.6929 13.4229V58.8234H58.3055V20.5129L46.6929 13.4229Z" fill="white"/>
</svg>