<svg xmlns="http://www.w3.org/2000/svg" width="20" height="20" viewBox="0 0 70 71" fill="none">
<path fill-rule="evenodd" clip-rule="evenodd" d="M11.7837 20.4993C11.7837 15.6783 15.6925 11.7695 20.5134 11.7695H49.6125C54.4335 11.7695 58.3423 15.6783 58.3423 20.4993C58.3423 25.3202 54.4335 29.229 49.6125 29.229H20.5134C15.6925 29.229 11.7837 25.3202 11.7837 20.4993ZM18.3054 20.4993C18.3054 18.8923 19.6083 17.5894 21.2153 17.5894H48.9106C50.5176 17.5894 51.8205 18.8923 51.8205 20.4993C51.8205 22.1062 50.5176 23.4092 48.9106 23.4092H21.2153C19.6083 23.4092 18.3054 22.1062 18.3054 20.4993Z" fill="white"/>
<path d="M11.7837 38.9718H58.3423V44.7916H11.7837V38.9718Z" fill="white"/>
<path d="M11.7837 52.9871H58.3423V58.8069H11.7837V52.9871Z" fill="white"/>
</svg>