<svg xmlns="http://www.w3.org/2000/svg" width="20" height="20" viewBox="0 0 70 70" fill="none">
<path d="M52.1898 13.3953C54.9741 13.3953 57.2311 15.6524 57.2311 18.4366V42.5863C57.2311 45.3705 54.9741 47.6276 52.1898 47.6276H39.8426L44.7133 42.7568C45.3516 41.7754 45.2276 40.4343 44.3499 39.5567C43.4701 38.6769 42.1246 38.5545 41.1426 39.198L31.9748 48.3658C30.9904 49.3502 30.9904 50.9462 31.9748 51.9306L41.0544 61.0102C42.0423 61.7267 43.4431 61.6297 44.3467 60.7262C45.2272 59.8456 45.3418 58.4927 44.6837 57.51L39.8426 52.6688H52.1898C57.7583 52.6688 62.2724 48.1547 62.2724 42.5863V18.4366C62.2724 12.8681 57.7583 8.354 52.1898 8.354H17.6488C12.0803 8.354 7.56616 12.8681 7.56616 18.4366V42.5862C7.56616 48.1547 12.0803 52.6688 17.6488 52.6688H25.4015V47.6276H17.6488C14.8645 47.6276 12.6075 45.3705 12.6075 42.5862V18.4366C12.6075 15.6524 14.8645 13.3953 17.6488 13.3953H52.1898Z" fill="white"/>
</svg>