<svg xmlns="http://www.w3.org/2000/svg" width="20" height="20" viewBox="0 0 70 70" fill="none">
<path d="M21.4098 44.1651C21.3648 44.2135 21.3163 44.2664 21.264 44.3232C20.6266 45.0171 19.438 46.3111 17.377 47.5038C15.1607 48.7864 11.8511 49.9929 7.09108 49.9603L7.05688 54.9523C12.736 54.9912 16.9171 53.5377 19.8775 51.8245C22.6107 50.2428 24.2321 48.4734 24.9217 47.7209C24.9748 47.663 25.0239 47.6094 25.066 47.5641C25.5512 47.0422 26.0349 46.5263 26.5247 46.0039C29.9457 42.3556 33.661 38.3932 40.2 29.9057C44.9325 23.7631 51.437 22.37 52.9213 22.3329H54.5827L50.715 26.2006C50.0637 27.2007 50.1769 28.5533 51.0545 29.4309C51.8763 30.2527 53.1145 30.4042 54.0899 29.8855L62.3736 21.6018C63.3483 20.6271 63.3483 19.0467 62.3736 18.0719L54.4209 10.1193C53.4405 9.57903 52.1833 9.72451 51.3521 10.5557C50.4868 11.421 50.3646 12.7481 50.9856 13.7438L54.5827 17.3409L52.873 17.3409L52.8507 17.3413C50.1278 17.3899 42.0622 19.309 36.2455 26.8591C29.854 35.155 26.2703 38.977 22.8796 42.5931L22.8752 42.5978C22.3854 43.1202 21.8995 43.6384 21.4098 44.1651Z" fill="white"/>
<path d="M21.2647 25.515C21.3169 25.5718 21.3653 25.6245 21.4103 25.6728C21.9 26.1996 22.3858 26.7178 22.8756 27.2402L22.879 27.2438C24.0731 28.5172 25.2921 29.8172 26.6482 31.3281L30.4162 28.0526C29.0054 26.4791 27.747 25.1371 26.526 23.835C26.0362 23.3126 25.5516 22.7957 25.0664 22.2738C25.0243 22.2286 24.9768 22.1767 24.9237 22.1188C24.2341 21.3663 22.6111 19.5952 19.8779 18.0135C16.9176 16.3003 12.7364 14.8468 7.05732 14.8857L7.09151 19.8776C11.8515 19.845 15.1612 21.0516 17.3775 22.3342C19.4385 23.5269 20.6273 24.8211 21.2647 25.515Z" fill="white"/>
<path d="M36.2459 42.9789C35.971 42.6221 35.7014 42.2737 35.4367 41.9331L39.2098 38.6531C39.5327 39.0678 39.8628 39.494 40.2004 39.9322C44.9329 46.0749 51.4374 47.4679 52.9218 47.505H54.5831L50.7154 43.6374C50.0642 42.6373 50.1773 41.2847 51.055 40.407C51.8767 39.5853 53.115 39.4337 54.0903 39.9525L62.374 48.2361C63.3488 49.2109 63.3488 50.7913 62.374 51.766L54.4213 59.7187C53.441 60.2589 52.1837 60.1135 51.3525 59.2823C50.4872 58.4169 50.365 57.0899 50.986 56.0942L54.5831 52.4971H52.8734L52.8511 52.4967C50.1282 52.4481 42.0627 50.5289 36.2459 42.9789Z" fill="white"/>
</svg>